<mxfile host="65bd71144e">
    <diagram id="CNZlr1hofEI5NW647Oom" name="Page-1">
        <mxGraphModel dx="816" dy="422" grid="1" gridSize="10" guides="1" tooltips="1" connect="1" arrows="1" fold="1" page="1" pageScale="1" pageWidth="850" pageHeight="1100" math="0" shadow="0">
            <root>
                <mxCell id="0"/>
                <mxCell id="1" parent="0"/>
                <mxCell id="12" style="edgeStyle=none;shape=link;html=1;exitX=0.5;exitY=1;exitDx=0;exitDy=0;entryX=0;entryY=0.5;entryDx=0;entryDy=0;" parent="1" source="2" target="11" edge="1">
                    <mxGeometry relative="1" as="geometry">
                        <Array as="points">
                            <mxPoint x="435" y="130"/>
                        </Array>
                    </mxGeometry>
                </mxCell>
                <mxCell id="2" value="Network Router/&lt;br&gt;Switch" style="shape=process;whiteSpace=wrap;html=1;backgroundOutline=1;" parent="1" vertex="1">
                    <mxGeometry x="375" y="20" width="120" height="60" as="geometry"/>
                </mxCell>
                <mxCell id="10" value="WiFI" style="edgeStyle=none;shape=link;html=1;exitX=1;exitY=0.5;exitDx=0;exitDy=0;entryX=0;entryY=0.5;entryDx=0;entryDy=0;" parent="1" source="3" target="2" edge="1">
                    <mxGeometry relative="1" as="geometry"/>
                </mxCell>
                <mxCell id="3" value="Competition&lt;br&gt;Logger/Delay" style="shape=parallelogram;perimeter=parallelogramPerimeter;whiteSpace=wrap;html=1;fixedSize=1;" parent="1" vertex="1">
                    <mxGeometry x="155" y="20" width="120" height="60" as="geometry"/>
                </mxCell>
                <mxCell id="7" value="Eathernet" style="edgeStyle=none;shape=link;html=1;exitX=1;exitY=0.5;exitDx=0;exitDy=0;entryX=0;entryY=0.5;entryDx=0;entryDy=0;" parent="1" source="4" target="3" edge="1">
                    <mxGeometry relative="1" as="geometry"/>
                </mxCell>
                <mxCell id="4" value="Operator&lt;br&gt;Control" style="whiteSpace=wrap;html=1;aspect=fixed;" parent="1" vertex="1">
                    <mxGeometry x="15" y="10" width="80" height="80" as="geometry"/>
                </mxCell>
                <mxCell id="6" value="Serial" style="edgeStyle=none;shape=link;html=1;exitX=0.5;exitY=0;exitDx=0;exitDy=0;entryX=0.5;entryY=1;entryDx=0;entryDy=0;" parent="1" source="5" target="4" edge="1">
                    <mxGeometry relative="1" as="geometry">
                        <Array as="points">
                            <mxPoint x="55" y="130"/>
                        </Array>
                    </mxGeometry>
                </mxCell>
                <mxCell id="5" value="Wheel" style="triangle;whiteSpace=wrap;html=1;" parent="1" vertex="1">
                    <mxGeometry x="15" y="130" width="60" height="80" as="geometry"/>
                </mxCell>
                <mxCell id="11" value="Jetson Nano/&lt;br&gt;SBC" style="whiteSpace=wrap;html=1;aspect=fixed;" parent="1" vertex="1">
                    <mxGeometry x="515" y="90" width="80" height="80" as="geometry"/>
                </mxCell>
                <mxCell id="14" value="Eathernet" style="edgeStyle=none;shape=link;html=1;exitX=0;exitY=0.5;exitDx=0;exitDy=0;" parent="1" source="13" edge="1">
                    <mxGeometry x="0.2727" relative="1" as="geometry">
                        <mxPoint x="435" y="130" as="targetPoint"/>
                        <Array as="points">
                            <mxPoint x="435" y="250"/>
                        </Array>
                        <mxPoint as="offset"/>
                    </mxGeometry>
                </mxCell>
                <mxCell id="18" value="CAN" style="edgeStyle=none;html=1;exitX=1;exitY=0.5;exitDx=0;exitDy=0;entryX=0;entryY=0.5;entryDx=0;entryDy=0;" parent="1" source="13" target="15" edge="1">
                    <mxGeometry relative="1" as="geometry">
                        <Array as="points">
                            <mxPoint x="675" y="250"/>
                            <mxPoint x="675" y="210"/>
                        </Array>
                    </mxGeometry>
                </mxCell>
                <mxCell id="19" style="edgeStyle=none;html=1;exitX=1;exitY=0.5;exitDx=0;exitDy=0;entryX=0;entryY=0.5;entryDx=0;entryDy=0;" parent="1" source="13" target="16" edge="1">
                    <mxGeometry relative="1" as="geometry">
                        <Array as="points">
                            <mxPoint x="675" y="250"/>
                            <mxPoint x="675" y="290"/>
                        </Array>
                    </mxGeometry>
                </mxCell>
                <mxCell id="13" value="Eathernet&lt;br&gt;To CAN" style="shape=step;perimeter=stepPerimeter;whiteSpace=wrap;html=1;fixedSize=1;" parent="1" vertex="1">
                    <mxGeometry x="515" y="210" width="120" height="80" as="geometry"/>
                </mxCell>
                <mxCell id="15" value="Spark Max" style="shape=parallelogram;perimeter=parallelogramPerimeter;whiteSpace=wrap;html=1;fixedSize=1;" parent="1" vertex="1">
                    <mxGeometry x="715" y="180" width="120" height="60" as="geometry"/>
                </mxCell>
                <mxCell id="16" value="Or DunkenMotor" style="shape=parallelogram;perimeter=parallelogramPerimeter;whiteSpace=wrap;html=1;fixedSize=1;" parent="1" vertex="1">
                    <mxGeometry x="705" y="260" width="120" height="60" as="geometry"/>
                </mxCell>
                <mxCell id="21" value="Power" style="edgeStyle=none;html=1;exitX=0.5;exitY=0;exitDx=0;exitDy=0;" parent="1" source="20" edge="1">
                    <mxGeometry relative="1" as="geometry">
                        <mxPoint x="665" y="390" as="targetPoint"/>
                    </mxGeometry>
                </mxCell>
                <mxCell id="26" style="edgeStyle=none;shape=link;html=1;exitX=0.5;exitY=1;exitDx=0;exitDy=0;" parent="1" source="20" edge="1">
                    <mxGeometry relative="1" as="geometry">
                        <mxPoint x="435" y="250" as="targetPoint"/>
                        <Array as="points">
                            <mxPoint x="435" y="390"/>
                        </Array>
                    </mxGeometry>
                </mxCell>
                <mxCell id="28" value="Redundant Control Signal" style="edgeStyle=none;html=1;exitX=0.75;exitY=0;exitDx=0;exitDy=0;entryX=0;entryY=0.5;entryDx=0;entryDy=0;" parent="1" source="20" target="24" edge="1">
                    <mxGeometry x="-0.1579" relative="1" as="geometry">
                        <Array as="points">
                            <mxPoint x="625" y="420"/>
                            <mxPoint x="625" y="570"/>
                        </Array>
                        <mxPoint as="offset"/>
                    </mxGeometry>
                </mxCell>
                <mxCell id="20" value="GPIO&lt;br&gt;Breakout" style="shape=trapezoid;perimeter=trapezoidPerimeter;whiteSpace=wrap;html=1;fixedSize=1;direction=south;" parent="1" vertex="1">
                    <mxGeometry x="515" y="330" width="60" height="120" as="geometry"/>
                </mxCell>
                <mxCell id="22" value="LEDs, Small Motors,&lt;br&gt;anything..." style="rounded=0;whiteSpace=wrap;html=1;" parent="1" vertex="1">
                    <mxGeometry x="665" y="360" width="120" height="60" as="geometry"/>
                </mxCell>
                <mxCell id="23" value="Power" style="edgeStyle=none;html=1;exitX=0.5;exitY=0;exitDx=0;exitDy=0;" parent="1" source="24" edge="1">
                    <mxGeometry relative="1" as="geometry">
                        <mxPoint x="665" y="620" as="targetPoint"/>
                    </mxGeometry>
                </mxCell>
                <mxCell id="27" style="edgeStyle=none;shape=link;html=1;exitX=0.5;exitY=1;exitDx=0;exitDy=0;" parent="1" source="24" edge="1">
                    <mxGeometry relative="1" as="geometry">
                        <mxPoint x="435" y="390" as="targetPoint"/>
                        <Array as="points">
                            <mxPoint x="435" y="620"/>
                        </Array>
                    </mxGeometry>
                </mxCell>
                <mxCell id="24" value="H Bridge" style="shape=trapezoid;perimeter=trapezoidPerimeter;whiteSpace=wrap;html=1;fixedSize=1;direction=south;" parent="1" vertex="1">
                    <mxGeometry x="515" y="560" width="60" height="120" as="geometry"/>
                </mxCell>
                <mxCell id="25" value="LEDs, Small Motors,&lt;br&gt;anything..." style="rounded=0;whiteSpace=wrap;html=1;" parent="1" vertex="1">
                    <mxGeometry x="665" y="590" width="120" height="60" as="geometry"/>
                </mxCell>
                <mxCell id="31" value="Data" style="edgeStyle=none;html=1;exitX=0;exitY=0;exitDx=0;exitDy=15;exitPerimeter=0;" parent="1" source="30" edge="1">
                    <mxGeometry x="-0.5122" y="5" relative="1" as="geometry">
                        <mxPoint x="575" y="400" as="targetPoint"/>
                        <Array as="points">
                            <mxPoint x="635" y="455"/>
                            <mxPoint x="635" y="400"/>
                        </Array>
                        <mxPoint as="offset"/>
                    </mxGeometry>
                </mxCell>
                <mxCell id="30" value="LiDAR" style="shape=cylinder3;whiteSpace=wrap;html=1;boundedLbl=1;backgroundOutline=1;size=15;" parent="1" vertex="1">
                    <mxGeometry x="725" y="440" width="60" height="80" as="geometry"/>
                </mxCell>
                <mxCell id="33" style="edgeStyle=none;shape=link;html=1;exitX=0;exitY=0.5;exitDx=0;exitDy=0;" parent="1" source="32" edge="1">
                    <mxGeometry relative="1" as="geometry">
                        <mxPoint x="435" y="620" as="targetPoint"/>
                        <Array as="points">
                            <mxPoint x="435" y="780"/>
                        </Array>
                    </mxGeometry>
                </mxCell>
                <mxCell id="32" value="Camera" style="shape=hexagon;perimeter=hexagonPerimeter2;whiteSpace=wrap;html=1;fixedSize=1;" parent="1" vertex="1">
                    <mxGeometry x="515" y="740" width="120" height="80" as="geometry"/>
                </mxCell>
                <mxCell id="34" value="Note:&lt;br&gt;The Operator can access every device on the network even if the Jetson Nano Crashes. Manual override and control at the cost of extra data.&lt;br&gt;Router is a single point of failure though." style="shape=note;whiteSpace=wrap;html=1;backgroundOutline=1;darkOpacity=0.05;" parent="1" vertex="1">
                    <mxGeometry x="15" y="230" width="150" height="190" as="geometry"/>
                </mxCell>
                <mxCell id="35" value="Eathernet robot intranet, 1 gigabit/s per device. Allows for dyanmic and easily scaleable robot using modules that join the network.&lt;br&gt;Reliable and interference resistant. Add a redundant SBC or other modules" style="shape=note;whiteSpace=wrap;html=1;backgroundOutline=1;darkOpacity=0.05;" parent="1" vertex="1">
                    <mxGeometry x="265" y="230" width="150" height="190" as="geometry"/>
                </mxCell>
                <mxCell id="37" value="Eathernet/POE" style="edgeStyle=none;shape=link;html=1;exitX=1;exitY=0.5;exitDx=0;exitDy=0;exitPerimeter=0;" parent="1" edge="1">
                    <mxGeometry relative="1" as="geometry">
                        <mxPoint x="435" y="780" as="targetPoint"/>
                        <mxPoint x="284.99999999999994" y="819.9999999999999" as="sourcePoint"/>
                        <Array as="points">
                            <mxPoint x="435" y="820"/>
                        </Array>
                    </mxGeometry>
                </mxCell>
                <mxCell id="36" value="Remote Sensor/ GPIO" style="shape=tape;whiteSpace=wrap;html=1;" parent="1" vertex="1">
                    <mxGeometry x="155" y="770" width="135" height="100" as="geometry"/>
                </mxCell>
                <mxCell id="38" value="Remote sensor or GPIO?&lt;br&gt;Use POE over just one&lt;br&gt;cable" style="shape=note;whiteSpace=wrap;html=1;backgroundOutline=1;darkOpacity=0.05;" parent="1" vertex="1">
                    <mxGeometry x="150" y="600" width="145" height="160" as="geometry"/>
                </mxCell>
            </root>
        </mxGraphModel>
    </diagram>
</mxfile>